<?xml version="1.0" encoding="UTF-8" standalone="no" ?>
<!DOCTYPE svg PUBLIC "-//W3C//DTD SVG 1.1//EN" "http://www.w3.org/Graphics/SVG/1.1/DTD/svg11.dtd">
<svg xmlns="http://www.w3.org/2000/svg" xmlns:xlink="http://www.w3.org/1999/xlink" version="1.1" width="1080" height="1080" viewBox="0 0 1080 1080" xml:space="preserve">
<desc>Created with Fabric.js 5.2.4</desc>
<defs>
</defs>
<rect x="0" y="0" width="100%" height="100%" fill="transparent"></rect>
<g transform="matrix(1 0 0 1 540 540)" id="e1e901de-34c8-4ecf-8234-16edc99a2a20"  >
<rect style="stroke: none; stroke-width: 1; stroke-dasharray: none; stroke-linecap: butt; stroke-dashoffset: 0; stroke-linejoin: miter; stroke-miterlimit: 4; fill: rgb(255,255,255); fill-rule: nonzero; opacity: 1; visibility: hidden;" vector-effect="non-scaling-stroke"  x="-540" y="-540" rx="0" ry="0" width="1080" height="1080" />
</g>
<g transform="matrix(1 0 0 1 540 540)" id="fc83f170-7703-4e8e-bf65-d14ebe58e024"  >
</g>
<g transform="matrix(NaN NaN NaN NaN 0 0)"  >
<g style=""   >
</g>
</g>
<g transform="matrix(NaN NaN NaN NaN 0 0)"  >
<g style=""   >
</g>
</g>
<g transform="matrix(0.78 0 0 0.78 540 726.05)"  >
<path style="stroke: none; stroke-width: 1; stroke-dasharray: none; stroke-linecap: butt; stroke-dashoffset: 0; stroke-linejoin: miter; stroke-miterlimit: 4; fill: rgb(133,148,158); fill-rule: nonzero; opacity: 1;" vector-effect="non-scaling-stroke"  transform=" translate(-512, -750.15)" d="M 653.5 684.6 L 87.4 684.6 C 74.30000000000001 684.6 63.50000000000001 673.9 63.50000000000001 660.7 C 63.50000000000001 647.6 74.2 636.8000000000001 87.4 636.8000000000001 L 653.5 636.8000000000001 C 666.6 636.8000000000001 677.4 647.5000000000001 677.4 660.7 C 677.4 673.9 666.6 684.6 653.5 684.6 z M 936.6 774.1 L 370.5 774.1 C 357.4 774.1 346.6 763.4 346.6 750.2 C 346.6 737.1 357.3 726.3000000000001 370.5 726.3000000000001 L 936.6 726.3000000000001 C 949.7 726.3000000000001 960.5 737.0000000000001 960.5 750.2 C 960.4 763.3000000000001 949.7 774.1 936.6 774.1 z M 722.8 863.5 L 156.79999999999995 863.5 C 143.69999999999996 863.5 132.89999999999995 852.8 132.89999999999995 839.6 C 132.89999999999995 826.5 143.59999999999994 815.7 156.79999999999995 815.7 L 722.9 815.7 C 736 815.7 746.8 826.4000000000001 746.8 839.6 C 746.6999999999999 852.8000000000001 736 863.5 722.8 863.5 z" stroke-linecap="round" />
</g>
<g transform="matrix(0.78 0 0 0.78 541.05 439.41)"  >
<path style="stroke: none; stroke-width: 1; stroke-dasharray: none; stroke-linecap: butt; stroke-dashoffset: 0; stroke-linejoin: miter; stroke-miterlimit: 4; fill: rgb(255,193,5); fill-rule: nonzero; opacity: 1;" vector-effect="non-scaling-stroke"  transform=" translate(-513.35, -383.25)" d="M 513.5 301.9 C 500.1 301.9 489.1 290.9 489.1 277.5 L 489.1 184.9 C 489.1 171.5 500.1 160.5 513.5 160.5 C 526.9 160.5 537.9 171.5 537.9 184.9 L 537.9 277.5 C 537.9 290.9 527 301.9 513.5 301.9 z M 793.2 581.6 C 793.2 595 804.2 606 817.6 606 L 910.2 606 C 923.6 606 934.6 595 934.6 581.6 C 934.6 568.2 923.6 557.2 910.2 557.2 L 817.6 557.2 C 804.2 557.2 793.2 568.2 793.2 581.6 z M 233.5 581.6 C 233.5 595 222.5 606 209.1 606 L 116.5 606 C 103.1 606 92.1 595 92.1 581.6 C 92.1 568.2 103.1 557.2 116.5 557.2 L 209.1 557.2 C 222.5 557.2 233.5 568.2 233.5 581.6 z M 713.5 384.8 C 704 375.3 704 359.8 713.5 350.3 L 767.3 296.5 C 776.8 287 792.3 287 801.8 296.5 C 811.3 306 811.3 321.5 801.8 331 L 748 384.8 C 738.5 394.3 723 394.3 713.5 384.8 z M 313.3 384.8 C 322.8 375.3 322.8 359.8 313.3 350.3 L 259.5 296.5 C 250 287 234.5 287 225 296.5 C 215.5 306 215.5 321.5 225 331 L 278.8 384.8 C 288.3 394.3 303.8 394.3 313.3 384.8 z" stroke-linecap="round" />
</g>
<g transform="matrix(0.78 0 0 0.78 541.64 533.2)"  >
<path style="stroke: none; stroke-width: 1; stroke-dasharray: none; stroke-linecap: butt; stroke-dashoffset: 0; stroke-linejoin: miter; stroke-miterlimit: 4; fill: rgb(255,193,5); fill-rule: nonzero; opacity: 1;" vector-effect="non-scaling-stroke"  transform=" translate(-514.1, -503.3)" d="M 716.6 625.8 C 719 613.1999999999999 720.3000000000001 600.1999999999999 720.3000000000001 587 C 720.3000000000001 473.1 628.0000000000001 380.8 514.1000000000001 380.8 C 400.20000000000016 380.8 307.90000000000015 473.1 307.90000000000015 587 C 307.90000000000015 600.3 309.20000000000016 613.3 311.60000000000014 625.8 L 716.6000000000001 625.8 z" stroke-linecap="round" />
</g>
<g transform="matrix(0.78 0 0 0.78 406.72 586.8)"  >
<path style="stroke: none; stroke-width: 1; stroke-dasharray: none; stroke-linecap: butt; stroke-dashoffset: 0; stroke-linejoin: miter; stroke-miterlimit: 4; fill: rgb(255,193,5); fill-rule: nonzero; opacity: 1;" vector-effect="non-scaling-stroke"  transform=" translate(-341.4, -571.9)" d="M 374.8 625.8 C 349.8 594.0999999999999 331.3 557.8 319.8 518 C 312.2 539.6 308 562.8 308 586.9 C 308 600.1999999999999 309.3 613.1999999999999 311.7 625.6999999999999 L 374.8 625.6999999999999 z" stroke-linecap="round" />
</g>
<g transform="matrix(0.78 0 0 0.78 540 517.26)"  >
<path style="stroke: none; stroke-width: 1; stroke-dasharray: none; stroke-linecap: butt; stroke-dashoffset: 0; stroke-linejoin: miter; stroke-miterlimit: 4; fill: rgb(255,193,5); fill-rule: nonzero; opacity: 1;" vector-effect="non-scaling-stroke"  transform=" translate(-512.65, -490.5)" d="M 697.8 582.5 C 697.8 597.4 696 611.9 692.5999999999999 625.8 L 735.8 625.8 C 738.5 611.8 740 597.3 740 582.5 C 740 569.1 738.8 555.6 736.5 542.5 C 734.5 531 723.5 523.4 712 525.4 C 700.5 527.4 692.9 538.4 694.9 549.9 C 696.8 560.6 697.8 571.5 697.8 582.5 z M 332.7 625.8 C 329.4 611.9 327.5 597.4 327.5 582.5 C 327.5 480.4 410.5 397.4 512.6 397.4 C 535.3000000000001 397.4 557.4 401.5 578.4 409.4 C 589.3 413.5 601.5 408.09999999999997 605.6 397.2 C 609.7 386.3 604.3000000000001 374.09999999999997 593.4 370 C 567.6 360.2 540.4 355.2 512.6 355.2 C 387.20000000000005 355.2 285.3 457.2 285.3 582.5 C 285.3 597.3 286.8 611.8 289.5 625.8 L 332.7 625.8 z" stroke-linecap="round" />
</g>
<g transform="matrix(NaN NaN NaN NaN 0 0)"  >
<g style=""   >
</g>
</g>
<g transform="matrix(NaN NaN NaN NaN 0 0)"  >
<g style=""   >
</g>
</g>
<g transform="matrix(NaN NaN NaN NaN 0 0)"  >
<g style=""   >
</g>
</g>
</svg>