<?xml version="1.0" encoding="UTF-8" standalone="no" ?>
<!DOCTYPE svg PUBLIC "-//W3C//DTD SVG 1.1//EN" "http://www.w3.org/Graphics/SVG/1.1/DTD/svg11.dtd">
<svg xmlns="http://www.w3.org/2000/svg" xmlns:xlink="http://www.w3.org/1999/xlink" version="1.1" width="1080" height="1080" viewBox="0 0 1080 1080" xml:space="preserve">
<desc>Created with Fabric.js 5.2.4</desc>
<defs>
</defs>
<g transform="matrix(1 0 0 1 540 540)" id="d730b060-3f7a-4701-8e0f-c10d9a7c53ed"  >
<rect style="stroke: none; stroke-width: 1; stroke-dasharray: none; stroke-linecap: butt; stroke-dashoffset: 0; stroke-linejoin: miter; stroke-miterlimit: 4; fill: rgb(255,255,255); fill-rule: nonzero; opacity: 1; visibility: hidden;" vector-effect="non-scaling-stroke"  x="-540" y="-540" rx="0" ry="0" width="1080" height="1080" />
</g>
<g transform="matrix(1 0 0 1 540 540)" id="3e42e778-48c3-46ff-bd7c-05f713c598b5"  >
</g>
<g transform="matrix(0.78 0 0 0.78 628.8 458.35)"  >
<path style="stroke: none; stroke-width: 1; stroke-dasharray: none; stroke-linecap: butt; stroke-dashoffset: 0; stroke-linejoin: miter; stroke-miterlimit: 4; fill: rgb(14,96,150); fill-rule: nonzero; opacity: 1;" vector-effect="non-scaling-stroke"  transform=" translate(-626.25, -407.8)" d="M 779.7 630.6 L 451.50000000000006 630.2 C 448.90000000000003 630.4000000000001 444.1000000000001 630.5 442.50000000000006 630.5 C 439.1000000000001 630.5 435.80000000000007 630.4 432.40000000000003 630.1 L 432.3 630.1 C 355.3 624.6 294.20000000000005 557.5 294.20000000000005 475.90000000000003 C 294.20000000000005 391.30000000000007 360.70000000000005 322.40000000000003 442.70000000000005 321.6 C 460.7 242.7 530 185 610.1 185 C 653.4 185 694.7 201.6 726.5 231.7 C 752.8 256.7 770.8 289.09999999999997 778.2 324.6 C 788.1 322.5 798.2 321.5 808.4000000000001 321.5 C 891.1000000000001 321.5 958.3000000000001 390.7 958.3000000000001 475.8 C 958.3000000000001 560.9 891.1 630.1 808.4000000000001 630.1 C 803.3000000000001 630.1 798.6000000000001 630.2 793.9000000000001 630.3000000000001 C 789.2 630.5000000000001 784.6000000000001 630.6 779.7 630.6 z M 453.1 594.8000000000001 L 779.8 595.2 C 784.4 595.2 788.6999999999999 595.1 793.0999999999999 595 C 797.9999999999999 594.9 802.8999999999999 594.8 808.3 594.8 C 871.4 594.8 922.8 541.5 922.8 475.99999999999994 C 922.8 410.4999999999999 871.4 357.19999999999993 808.3 357.19999999999993 C 795.0999999999999 357.19999999999993 782.0999999999999 359.49999999999994 769.6999999999999 364.0999999999999 L 747.9 372.19999999999993 L 746 349 C 739.5 275.8 681.1 220.6 610.1 220.6 C 542.4 220.6 484.3 273 474.90000000000003 342.5 L 472.6 359.5 L 455.5 357.7 C 451.7 357.3 447.8 357.09999999999997 444.1 357.09999999999997 C 381 357.09999999999997 329.6 410.4 329.6 475.9 C 329.6 538.5 375.6 590.1 433.90000000000003 594.6999999999999 L 450.00000000000006 594.5999999999999 C 451.1000000000001 594.5999999999999 452.1000000000001 594.6999999999999 453.1000000000001 594.8 z" stroke-linecap="round" />
</g>
<g transform="matrix(0.78 0 0 0.78 488.91 508.4)"  >
<path style="stroke: rgb(14,96,150); stroke-width: 1; stroke-dasharray: none; stroke-linecap: butt; stroke-dashoffset: 0; stroke-linejoin: miter; stroke-miterlimit: 4; fill: rgb(26,181,237); fill-rule: nonzero; opacity: 1;" vector-effect="non-scaling-stroke"  transform=" translate(-447.25, -471.9)" d="M 662.5 388.7 C 643.9 388.7 626.2 392.2 609.6 398.5 C 601.1 300 523.2 222.9 428.20000000000005 222.9 C 336.20000000000005 222.9 260.1 295.4 247.80000000000004 389.6 C 242.60000000000005 389.1 237.40000000000003 388.8 232.10000000000005 388.8 C 145.9 388.8 76 463 76 554.6 C 76 646.2 144 720.8 230.3 720.8 C 231.8 720.8 237.8 720.5999999999999 240.3 720.4 L 239.20000000000002 720.4 L 239.20000000000002 720.1999999999999 C 242.10000000000002 720.1999999999999 241.9 720.3 240.3 720.4 L 628.6 720.9 C 639.9 720.9 650.1 720.4 662.4 720.4 C 748.6 720.4 818.5 646.1999999999999 818.5 554.5999999999999 C 818.5 462.9999999999999 748.7 388.69999999999993 662.5 388.69999999999993 z" stroke-linecap="round" />
</g>
<g transform="matrix(0.78 0 0 0.78 495.73 507.55)"  >
<path style="stroke: rgb(26,181,237); stroke-width: 1; stroke-dasharray: none; stroke-linecap: butt; stroke-dashoffset: 0; stroke-linejoin: miter; stroke-miterlimit: 4; fill: rgb(14,96,150); fill-rule: nonzero; opacity: 1;" vector-effect="non-scaling-stroke"  transform=" translate(-456, -470.85)" d="M 637.3 738.6 C 626.9 738.6 618.4 730.1 618.4 719.7 C 618.4 709.3000000000001 626.9 700.8000000000001 637.3 700.8000000000001 C 642.6999999999999 700.8000000000001 647.9 700.7 653.0999999999999 700.6 C 658.8 700.5 664.5999999999999 700.3000000000001 671.0999999999999 700.3000000000001 C 746.8 700.3000000000001 808.3 634.4000000000001 808.3 553.4000000000001 C 808.3 472.4000000000001 746.6999999999999 406.5000000000001 671.0999999999999 406.5000000000001 C 655.3 406.5000000000001 639.8 409.4000000000001 624.9999999999999 415.0000000000001 L 601.5999999999999 424.0000000000001 L 599.3999999999999 399.0000000000001 C 591.5999999999999 308.8000000000001 521.6999999999998 240.7000000000001 436.89999999999986 240.7000000000001 C 355.89999999999986 240.7000000000001 286.4999999999999 305.30000000000007 275.29999999999984 390.9000000000001 L 272.89999999999986 409.2000000000001 L 254.49999999999986 407.3000000000001 C 249.89999999999986 406.8000000000001 245.29999999999987 406.60000000000014 240.79999999999987 406.60000000000014 C 165.09999999999985 406.60000000000014 103.59999999999988 472.5000000000001 103.59999999999988 553.5000000000001 C 103.59999999999988 631.1000000000001 158.9999999999999 694.8000000000002 228.89999999999986 700.4000000000001 L 247.79999999999987 700.2 L 250.09999999999988 700.2 C 250.79999999999987 700.2 251.59999999999988 700.3000000000001 252.29999999999987 700.4000000000001 L 286.9999999999999 700.5000000000001 C 297.39999999999986 700.5000000000001 305.89999999999986 709.0000000000001 305.89999999999986 719.5000000000001 C 305.89999999999986 729.9000000000001 297.39999999999986 738.4000000000001 286.9999999999999 738.4000000000001 L 249.59999999999988 738.3000000000001 C 248.59999999999988 738.4000000000001 247.3999999999999 738.4000000000001 246.09999999999988 738.5000000000001 C 243.19999999999987 738.6000000000001 240.09999999999988 738.7000000000002 238.9999999999999 738.7000000000002 C 192.09999999999988 738.7000000000002 148.2999999999999 719.2000000000002 115.59999999999988 683.8000000000002 C 83.49999999999989 649.0000000000002 65.79999999999988 602.7000000000002 65.79999999999988 553.5000000000002 C 65.79999999999988 451.7000000000002 144.2999999999999 368.80000000000024 240.69999999999987 368.80000000000024 C 261 273.1 342.6 203 436.9 203 C 487.59999999999997 203 536 223 573.2 259.2 C 604.5 289.7 625.6 329.5 633.9000000000001 373 C 646.1000000000001 370.2 658.5000000000001 368.8 671.1000000000001 368.8 C 767.6000000000001 368.8 846.2000000000002 451.70000000000005 846.2000000000002 553.5 C 846.2000000000002 655.3 767.7000000000002 738.2 671.1000000000001 738.2 C 665.0000000000001 738.2 659.4000000000001 738.3000000000001 654.0000000000001 738.4000000000001 C 648.4000000000001 738.5000000000001 643.0000000000001 738.6000000000001 637.3000000000001 738.6000000000001 z" stroke-linecap="round" />
</g>
<g transform="matrix(0.78 0 0 0.78 429.73 607.59)"  >
<path style="stroke: none; stroke-width: 1; stroke-dasharray: none; stroke-linecap: butt; stroke-dashoffset: 0; stroke-linejoin: miter; stroke-miterlimit: 4; fill: rgb(97,173,215); fill-rule: nonzero; opacity: 1;" vector-effect="non-scaling-stroke"  transform=" translate(-371.35, -598.65)" d="M 105.1 476.4 C 93.39999999999999 499.7 86.69999999999999 526.3 86.69999999999999 554.6 C 86.69999999999999 646.2 154.7 720.8 241 720.8 C 242.5 720.8 248.5 720.5999999999999 251 720.4 L 249.9 720.4 L 249.9 720.1999999999999 C 252.8 720.1999999999999 252.6 720.3 251 720.4 L 639.3 720.9 C 644.5 720.9 649.5 720.8 654.5 720.6999999999999 L 656 718.5999999999999 C 334.4 718.4999999999999 161.5 683.0999999999999 105.10000000000002 476.3999999999999 z" stroke-linecap="round" />
</g>
<g transform="matrix(0.78 0 0 0.78 452.53 700.47)"  >
<path style="stroke: none; stroke-width: 1; stroke-dasharray: none; stroke-linecap: butt; stroke-dashoffset: 0; stroke-linejoin: miter; stroke-miterlimit: 4; fill: rgb(26,26,26); fill-rule: nonzero; opacity: 1;" vector-effect="non-scaling-stroke"  transform=" translate(-400.1, -717.45)" d="M 400.1 779.6 C 393.70000000000005 779.6 388.5 774.4 388.5 768 L 388.5 666.9 C 388.5 660.5 393.7 655.3 400.1 655.3 C 406.50000000000006 655.3 411.70000000000005 660.5 411.70000000000005 666.9 L 411.70000000000005 768 C 411.80000000000007 774.4 406.6 779.6 400.1 779.6 z" stroke-linecap="round" />
</g>
<g transform="matrix(0.78 0 0 0.78 452.56 700.46)"  >
<path style="stroke: none; stroke-width: 1; stroke-dasharray: none; stroke-linecap: butt; stroke-dashoffset: 0; stroke-linejoin: miter; stroke-miterlimit: 4; fill: rgb(26,26,26); fill-rule: nonzero; opacity: 1;" vector-effect="non-scaling-stroke"  transform=" translate(-400.2, -717.41)" d="M 435.9 764.8 C 432.9 764.8 429.9 763.6999999999999 427.7 761.4 L 356.2 689.9 C 351.7 685.4 351.7 678 356.2 673.4 C 360.7 668.9 368.09999999999997 668.9 372.7 673.4 L 444.2 744.9 C 448.7 749.4 448.7 756.8 444.2 761.4 C 441.9 763.6999999999999 438.9 764.8 435.9 764.8 z" stroke-linecap="round" />
</g>
<g transform="matrix(0.78 0 0 0.78 452.56 700.46)"  >
<path style="stroke: none; stroke-width: 1; stroke-dasharray: none; stroke-linecap: butt; stroke-dashoffset: 0; stroke-linejoin: miter; stroke-miterlimit: 4; fill: rgb(26,26,26); fill-rule: nonzero; opacity: 1;" vector-effect="non-scaling-stroke"  transform=" translate(-400.2, -717.41)" d="M 364.4 764.8 C 361.4 764.8 358.4 763.6999999999999 356.2 761.4 C 351.7 756.9 351.7 749.5 356.2 744.9 L 427.7 673.4 C 432.2 668.9 439.59999999999997 668.9 444.2 673.4 C 448.7 677.9 448.7 685.3 444.2 689.9 L 372.7 761.4 C 370.3 763.6999999999999 367.4 764.8 364.4 764.8 z" stroke-linecap="round" />
</g>
<g transform="matrix(0.78 0 0 0.78 452.5 700.57)"  >
<path style="stroke: none; stroke-width: 1; stroke-dasharray: none; stroke-linecap: butt; stroke-dashoffset: 0; stroke-linejoin: miter; stroke-miterlimit: 4; fill: rgb(26,26,26); fill-rule: nonzero; opacity: 1;" vector-effect="non-scaling-stroke"  transform=" translate(-400.15, -717.5)" d="M 450.7 729.1 L 349.6 729.1 C 343.20000000000005 729.1 338 723.9 338 717.5 C 338 711.1 343.2 705.9 349.6 705.9 L 450.70000000000005 705.9 C 457.1 705.9 462.30000000000007 711.1 462.30000000000007 717.5 C 462.30000000000007 723.9 457.1000000000001 729.1 450.70000000000005 729.1 z" stroke-linecap="round" />
</g>
<g transform="matrix(0.78 0 0 0.78 552.76 624.86)"  >
<path style="stroke: none; stroke-width: 1; stroke-dasharray: none; stroke-linecap: butt; stroke-dashoffset: 0; stroke-linejoin: miter; stroke-miterlimit: 4; fill: rgb(26,26,26); fill-rule: nonzero; opacity: 1;" vector-effect="non-scaling-stroke"  transform=" translate(-528.4, -620.65)" d="M 528.4 669.1 C 523.4 669.1 519.3 665 519.3 660 L 519.3 581.3 C 519.3 576.3 523.4 572.1999999999999 528.4 572.1999999999999 C 533.4 572.1999999999999 537.5 576.3 537.5 581.3 L 537.5 660 C 537.5 665 533.4 669.1 528.4 669.1 z" stroke-linecap="round" />
</g>
<g transform="matrix(0.78 0 0 0.78 552.8 624.94)"  >
<path style="stroke: none; stroke-width: 1; stroke-dasharray: none; stroke-linecap: butt; stroke-dashoffset: 0; stroke-linejoin: miter; stroke-miterlimit: 4; fill: rgb(26,26,26); fill-rule: nonzero; opacity: 1;" vector-effect="non-scaling-stroke"  transform=" translate(-528.5, -620.74)" d="M 556.3 657.6 C 554 657.6 551.6999999999999 656.7 549.9 654.9 L 494.29999999999995 599.3 C 490.79999999999995 595.8 490.79999999999995 590 494.29999999999995 586.5 C 497.79999999999995 583 503.59999999999997 583 507.09999999999997 586.5 L 562.6999999999999 642.1 C 566.1999999999999 645.6 566.1999999999999 651.4 562.6999999999999 654.9 C 560.9 656.6999999999999 558.5999999999999 657.6 556.3 657.6 z" stroke-linecap="round" />
</g>
<g transform="matrix(0.78 0 0 0.78 552.72 624.94)"  >
<path style="stroke: none; stroke-width: 1; stroke-dasharray: none; stroke-linecap: butt; stroke-dashoffset: 0; stroke-linejoin: miter; stroke-miterlimit: 4; fill: rgb(26,26,26); fill-rule: nonzero; opacity: 1;" vector-effect="non-scaling-stroke"  transform=" translate(-528.4, -620.74)" d="M 500.6 657.6 C 498.3 657.6 496 656.7 494.20000000000005 654.9 C 490.70000000000005 651.4 490.70000000000005 645.6 494.20000000000005 642.1 L 549.8000000000001 586.5 C 553.3000000000001 583 559.1 583 562.6 586.5 C 566.1 590 566.1 595.8 562.6 599.3 L 507 654.9 C 505.3 656.6999999999999 502.9 657.6 500.6 657.6 z" stroke-linecap="round" />
</g>
<g transform="matrix(0.78 0 0 0.78 552.75 624.95)"  >
<path style="stroke: none; stroke-width: 1; stroke-dasharray: none; stroke-linecap: butt; stroke-dashoffset: 0; stroke-linejoin: miter; stroke-miterlimit: 4; fill: rgb(26,26,26); fill-rule: nonzero; opacity: 1;" vector-effect="non-scaling-stroke"  transform=" translate(-528.45, -620.7)" d="M 567.8 629.8 L 489.09999999999997 629.8 C 484.09999999999997 629.8 479.99999999999994 625.6999999999999 479.99999999999994 620.6999999999999 C 479.99999999999994 615.6999999999999 484.09999999999997 611.5999999999999 489.09999999999997 611.5999999999999 L 567.8 611.5999999999999 C 572.8 611.5999999999999 576.9 615.6999999999999 576.9 620.6999999999999 C 576.8 625.6999999999999 572.8 629.8 567.8 629.8 z" stroke-linecap="round" />
</g>
<g transform="matrix(0.78 0 0 0.78 560.49 749.85)"  >
<path style="stroke: none; stroke-width: 1; stroke-dasharray: none; stroke-linecap: butt; stroke-dashoffset: 0; stroke-linejoin: miter; stroke-miterlimit: 4; fill: rgb(26,26,26); fill-rule: nonzero; opacity: 1;" vector-effect="non-scaling-stroke"  transform=" translate(-538.3, -780.65)" d="M 538.3 838.9 C 532.3 838.9 527.4 834 527.4 828 L 527.4 733.3 C 527.4 727.3 532.3 722.4 538.3 722.4 C 544.3 722.4 549.1999999999999 727.3 549.1999999999999 733.3 L 549.1999999999999 828 C 549.1999999999999 834 544.3 838.9 538.3 838.9 z" stroke-linecap="round" />
</g>
<g transform="matrix(0.78 0 0 0.78 560.45 749.82)"  >
<path style="stroke: none; stroke-width: 1; stroke-dasharray: none; stroke-linecap: butt; stroke-dashoffset: 0; stroke-linejoin: miter; stroke-miterlimit: 4; fill: rgb(26,26,26); fill-rule: nonzero; opacity: 1;" vector-effect="non-scaling-stroke"  transform=" translate(-538.3, -780.59)" d="M 571.8 825 C 569 825 566.1999999999999 823.9 564.0999999999999 821.8 L 497.0999999999999 754.8 C 492.7999999999999 750.5 492.7999999999999 743.5999999999999 497.0999999999999 739.4 C 501.3999999999999 735.1 508.2999999999999 735.1 512.4999999999999 739.4 L 579.4999999999999 806.4 C 583.7999999999998 810.6999999999999 583.7999999999998 817.6 579.4999999999999 821.8 C 577.3999999999999 823.9 574.5999999999999 825 571.7999999999998 825 z" stroke-linecap="round" />
</g>
<g transform="matrix(0.78 0 0 0.78 560.45 749.82)"  >
<path style="stroke: none; stroke-width: 1; stroke-dasharray: none; stroke-linecap: butt; stroke-dashoffset: 0; stroke-linejoin: miter; stroke-miterlimit: 4; fill: rgb(26,26,26); fill-rule: nonzero; opacity: 1;" vector-effect="non-scaling-stroke"  transform=" translate(-538.3, -780.59)" d="M 504.8 825 C 502 825 499.2 823.9 497.1 821.8 C 492.8 817.5 492.8 810.5999999999999 497.1 806.4 L 564.1 739.4 C 568.4 735.1 575.3000000000001 735.1 579.5 739.4 C 583.8 743.6999999999999 583.8 750.6 579.5 754.8 L 512.5 821.8 C 510.4 823.9 507.6 825 504.8 825 z" stroke-linecap="round" />
</g>
<g transform="matrix(0.78 0 0 0.78 560.47 749.87)"  >
<path style="stroke: none; stroke-width: 1; stroke-dasharray: none; stroke-linecap: butt; stroke-dashoffset: 0; stroke-linejoin: miter; stroke-miterlimit: 4; fill: rgb(26,26,26); fill-rule: nonzero; opacity: 1;" vector-effect="non-scaling-stroke"  transform=" translate(-538.35, -780.6)" d="M 585.7 791.5 L 491 791.5 C 485 791.5 480.1 786.6 480.1 780.6 C 480.1 774.6 485 769.7 491 769.7 L 585.7 769.7 C 591.7 769.7 596.6 774.6 596.6 780.6 C 596.6 786.6 591.7 791.5 585.7 791.5 z" stroke-linecap="round" />
</g>
<g transform="matrix(0 0 0 0 0 0)"  >
<g style=""   >
</g>
</g>
<g transform="matrix(0 0 0 0 0 0)"  >
<g style=""   >
</g>
</g>
<g transform="matrix(0 0 0 0 0 0)"  >
<g style=""   >
</g>
</g>
<g transform="matrix(0 0 0 0 0 0)"  >
<g style=""   >
</g>
</g>
<g transform="matrix(NaN NaN NaN NaN 0 0)"  >
<g style=""   >
</g>
</g>
<g transform="matrix(NaN NaN NaN NaN 0 0)"  >
<g style=""   >
</g>
</g>
<g transform="matrix(NaN NaN NaN NaN 0 0)"  >
<g style=""   >
</g>
</g>
<g transform="matrix(NaN NaN NaN NaN 0 0)"  >
<g style=""   >
</g>
</g>
</svg>